<mxfile host="app.diagrams.net" modified="2023-06-22T19:42:48.561Z" agent="Mozilla/5.0 (Macintosh; Intel Mac OS X 10_15_7) AppleWebKit/537.36 (KHTML, like Gecko) Chrome/112.0.0.0 Safari/537.36" version="21.5.0" etag="yeNBD55WpmgjF91ReQNT" type="github">
  <diagram name="Page-1" id="V4xozcgfG4kjeq78AjjS">
    <mxGraphModel>
      <root>
        <mxCell id="0" />
        <mxCell id="1" parent="0" />
      </root>
    </mxGraphModel>
  </diagram>
</mxfile>
